REM DIRINDEX 1\2,1\3
REM DIRNAME folder01,folder02,folder03
TITLE ""
FILE "2361-2380.mp3" MP3
  TRACK 01 AUDIO
    TITLE "0:"
    INDEX 01 00:00:00
  TRACK 02 AUDIO
    TITLE "2:cjc039_3721"
    INDEX 01 00:00:25
  TRACK 03 AUDIO
    TITLE "0:"
    INDEX 01 00:01:34
  TRACK 04 AUDIO
    TITLE "3:cjc039_3722"
    INDEX 01 00:02:08
  TRACK 05 AUDIO
    TITLE "0:"
    INDEX 01 00:05:32
  TRACK 06 AUDIO
    TITLE "2:cjc039_3723"
    INDEX 01 00:07:03
  TRACK 07 AUDIO
    TITLE "0:"
    INDEX 01 00:08:32
  TRACK 08 AUDIO
    TITLE "3:cjc039_3724"
    INDEX 01 00:09:10
  TRACK 09 AUDIO
    TITLE "0:"
    INDEX 01 00:12:26
  TRACK 10 AUDIO
    TITLE "2:cjc039_3725"
    INDEX 01 00:14:02
  TRACK 11 AUDIO
    TITLE "0:"
    INDEX 01 00:15:17
  TRACK 12 AUDIO
    TITLE "3:cjc039_3726"
    INDEX 01 00:15:66
  TRACK 13 AUDIO
    TITLE "0:"
    INDEX 01 00:19:26
  TRACK 14 AUDIO
    TITLE "2:cjc039_3727"
    INDEX 01 00:21:08
  TRACK 15 AUDIO
    TITLE "0:"
    INDEX 01 00:22:38
  TRACK 16 AUDIO
    TITLE "3:cjc039_3728"
    INDEX 01 00:23:16
  TRACK 17 AUDIO
    TITLE "0:"
    INDEX 01 00:26:58
  TRACK 18 AUDIO
    TITLE "2:cjc039_3729"
    INDEX 01 00:28:35
  TRACK 19 AUDIO
    TITLE "0:"
    INDEX 01 00:29:44
  TRACK 20 AUDIO
    TITLE "3:cjc039_3730"
    INDEX 01 00:30:18
  TRACK 21 AUDIO
    TITLE "0:"
    INDEX 01 00:33:13
  TRACK 22 AUDIO
    TITLE "2:cjc039_3731"
    INDEX 01 00:34:63
  TRACK 23 AUDIO
    TITLE "0:"
    INDEX 01 00:36:23
  TRACK 24 AUDIO
    TITLE "3:cjc039_3732"
    INDEX 01 00:36:66
  TRACK 25 AUDIO
    TITLE "0:"
    INDEX 01 00:40:52
  TRACK 26 AUDIO
    TITLE "2:cjc039_3733"
    INDEX 01 00:42:23
  TRACK 27 AUDIO
    TITLE "0:"
    INDEX 01 00:43:35
  TRACK 28 AUDIO
    TITLE "3:cjc039_3734"
    INDEX 01 00:44:07
  TRACK 29 AUDIO
    TITLE "0:"
    INDEX 01 00:46:43
  TRACK 30 AUDIO
    TITLE "2:cjc039_3735"
    INDEX 01 00:48:12
  TRACK 31 AUDIO
    TITLE "0:"
    INDEX 01 00:49:16
  TRACK 32 AUDIO
    TITLE "3:cjc039_3736"
    INDEX 01 00:49:65
  TRACK 33 AUDIO
    TITLE "0:"
    INDEX 01 00:53:49
  TRACK 34 AUDIO
    TITLE "2:cjc039_3737"
    INDEX 01 00:55:22
  TRACK 35 AUDIO
    TITLE "0:"
    INDEX 01 00:56:41
  TRACK 36 AUDIO
    TITLE "3:cjc039_3738"
    INDEX 01 00:57:21
  TRACK 37 AUDIO
    TITLE "0:"
    INDEX 01 01:00:35
  TRACK 38 AUDIO
    TITLE "2:cjc039_3739"
    INDEX 01 01:02:12
  TRACK 39 AUDIO
    TITLE "0:"
    INDEX 01 01:03:41
  TRACK 40 AUDIO
    TITLE "3:cjc039_3740"
    INDEX 01 01:04:15
  TRACK 41 AUDIO
    TITLE "0:"
    INDEX 01 01:08:05
  TRACK 42 AUDIO
    TITLE "2:cjc039_3741"
    INDEX 01 01:09:54
  TRACK 43 AUDIO
    TITLE "0:"
    INDEX 01 01:10:59
  TRACK 44 AUDIO
    TITLE "3:cjc039_3742"
    INDEX 01 01:11:35
  TRACK 45 AUDIO
    TITLE "0:"
    INDEX 01 01:14:66
  TRACK 46 AUDIO
    TITLE "2:cjc039_3743"
    INDEX 01 01:16:44
  TRACK 47 AUDIO
    TITLE "0:"
    INDEX 01 01:17:67
  TRACK 48 AUDIO
    TITLE "3:cjc039_3744"
    INDEX 01 01:18:43
  TRACK 49 AUDIO
    TITLE "0:"
    INDEX 01 01:21:74
  TRACK 50 AUDIO
    TITLE "2:cjc039_3745"
    INDEX 01 01:23:52
  TRACK 51 AUDIO
    TITLE "0:"
    INDEX 01 01:25:04
  TRACK 52 AUDIO
    TITLE "3:cjc039_3746"
    INDEX 01 01:25:53
  TRACK 53 AUDIO
    TITLE "0:"
    INDEX 01 01:28:67
  TRACK 54 AUDIO
    TITLE "2:cjc039_3747"
    INDEX 01 01:30:40
  TRACK 55 AUDIO
    TITLE "0:"
    INDEX 01 01:32:04
  TRACK 56 AUDIO
    TITLE "3:cjc039_3748"
    INDEX 01 01:32:57
  TRACK 57 AUDIO
    TITLE "0:"
    INDEX 01 01:36:47
  TRACK 58 AUDIO
    TITLE "2:cjc039_3749"
    INDEX 01 01:38:20
  TRACK 59 AUDIO
    TITLE "0:"
    INDEX 01 01:39:23
  TRACK 60 AUDIO
    TITLE "3:cjc039_3750"
    INDEX 01 01:39:74
  TRACK 61 AUDIO
    TITLE "0:"
    INDEX 01 01:42:41
  TRACK 62 AUDIO
    TITLE "2:cjc039_3751"
    INDEX 01 01:44:23
  TRACK 63 AUDIO
    TITLE "0:"
    INDEX 01 01:45:34
  TRACK 64 AUDIO
    TITLE "3:cjc039_3752"
    INDEX 01 01:46:12
  TRACK 65 AUDIO
    TITLE "0:"
    INDEX 01 01:49:73
  TRACK 66 AUDIO
    TITLE "2:cjc039_3753"
    INDEX 01 01:51:46
  TRACK 67 AUDIO
    TITLE "0:"
    INDEX 01 01:52:53
  TRACK 68 AUDIO
    TITLE "3:cjc039_3754"
    INDEX 01 01:53:27
  TRACK 69 AUDIO
    TITLE "0:"
    INDEX 01 01:56:04
  TRACK 70 AUDIO
    TITLE "2:cjc039_3755"
    INDEX 01 01:57:51
  TRACK 71 AUDIO
    TITLE "0:"
    INDEX 01 01:58:56
  TRACK 72 AUDIO
    TITLE "3:cjc039_3756"
    INDEX 01 01:59:30
  TRACK 73 AUDIO
    TITLE "0:"
    INDEX 01 02:02:26
  TRACK 74 AUDIO
    TITLE "2:cjc039_3757"
    INDEX 01 02:04:04
  TRACK 75 AUDIO
    TITLE "0:"
    INDEX 01 02:05:01
  TRACK 76 AUDIO
    TITLE "3:cjc039_3758"
    INDEX 01 02:05:56
  TRACK 77 AUDIO
    TITLE "0:"
    INDEX 01 02:08:11
  TRACK 78 AUDIO
    TITLE "2:cjc039_3759"
    INDEX 01 02:09:58
  TRACK 79 AUDIO
    TITLE "0:"
    INDEX 01 02:10:73
  TRACK 80 AUDIO
    TITLE "3:cjc039_3760"
    INDEX 01 02:11:53
  TRACK 81 AUDIO
    TITLE "0:"
    INDEX 01 02:15:05
